<?xml version="1.0" encoding="UTF-8"?>
<!DOCTYPE svg PUBLIC "-//W3C//DTD SVG 1.1//EN" "http://www.w3.org/Graphics/SVG/1.1/DTD/svg11.dtd">
<svg xmlns="http://www.w3.org/2000/svg" version="1.1" width="1000px" height="197px" style="shape-rendering:geometricPrecision; text-rendering:geometricPrecision; image-rendering:optimizeQuality; fill-rule:evenodd; clip-rule:evenodd" xmlns:xlink="http://www.w3.org/1999/xlink">
<g><path style="opacity:0.96" fill="#fefffe" d="M 562.5,19.5 C 591.21,15.8016 617.21,22.3016 640.5,39C 667.847,66.0646 674.347,97.5646 660,133.5C 647.565,157.32 628.065,171.82 601.5,177C 575.987,181.741 551.654,178.408 528.5,167C 495.959,145.068 484.126,114.901 493,76.5C 501.741,50.7589 518.908,33.2589 544.5,24C 550.629,22.4678 556.629,20.9678 562.5,19.5 Z M 568.5,45.5 C 590.886,42.5703 609.719,49.237 625,65.5C 639.077,85.8479 640.077,106.848 628,128.5C 615.776,144.779 599.443,153.112 579,153.5C 540.122,150.96 521.122,130.293 522,91.5C 527.452,65.8803 542.952,50.547 568.5,45.5 Z"/></g>
<g><path style="opacity:0.959" fill="#fefffe" d="M 892.5,19.5 C 913.044,16.4351 931.378,21.2684 947.5,34C 955.531,42.5657 959.865,52.7324 960.5,64.5C 950.167,64.5 939.833,64.5 929.5,64.5C 927.437,52.947 920.437,46.7803 908.5,46C 898.641,44.842 890.141,47.6753 883,54.5C 875.337,70.0099 879.837,80.1765 896.5,85C 912.465,84.8583 927.465,88.525 941.5,96C 960.492,111.468 965.326,130.635 956,153.5C 946.615,167.616 933.448,175.783 916.5,178C 898.258,180.685 881.258,177.351 865.5,168C 854.109,159.385 848.443,147.885 848.5,133.5C 858.833,133.5 869.167,133.5 879.5,133.5C 880.734,142.908 886.067,148.741 895.5,151C 905.01,153.249 914.01,151.915 922.5,147C 932.08,137.034 931.747,127.367 921.5,118C 918.205,115.566 914.538,113.899 910.5,113C 896.545,112.676 883.212,109.676 870.5,104C 849.994,91.4966 843.494,73.6633 851,50.5C 854.622,41.5437 860.455,34.377 868.5,29C 876.191,24.7211 884.191,21.5544 892.5,19.5 Z"/></g>
<g><path style="opacity:0.982" fill="#fefffe" d="M 19.5,21.5 C 30.1874,21.168 40.8541,21.5013 51.5,22.5C 73.4134,61.9953 95.5801,101.329 118,140.5C 139.421,101.326 160.588,61.9926 181.5,22.5C 192.146,21.5013 202.813,21.168 213.5,21.5C 213.5,73.1667 213.5,124.833 213.5,176.5C 203.5,176.5 193.5,176.5 183.5,176.5C 183.667,145.498 183.5,114.498 183,83.5C 166.754,114.326 150.254,144.993 133.5,175.5C 123.517,176.666 113.517,176.832 103.5,176C 85.5401,144.581 67.7068,113.081 50,81.5C 49.5,113.165 49.3334,144.832 49.5,176.5C 39.5,176.5 29.5,176.5 19.5,176.5C 19.5,124.833 19.5,73.1667 19.5,21.5 Z"/></g>
<g><path style="opacity:1" fill="#fefffe" d="M 254.5,21.5 C 264.5,21.5 274.5,21.5 284.5,21.5C 284.5,73.1667 284.5,124.833 284.5,176.5C 274.5,176.5 264.5,176.5 254.5,176.5C 254.5,124.833 254.5,73.1667 254.5,21.5 Z"/></g>
<g><path style="opacity:0.959" fill="#fefffe" d="M 309.5,22.5 C 321.993,21.34 334.66,21.1733 347.5,22C 362.214,39.9257 377.047,57.759 392,75.5C 406.953,57.759 421.786,39.9257 436.5,22C 449.167,21.3333 461.833,21.3333 474.5,22C 455.833,44.6667 437.167,67.3333 418.5,90C 400.833,90.6667 383.167,90.6667 365.5,90C 346.969,67.3101 328.302,44.8101 309.5,22.5 Z"/></g>
<g><path style="opacity:0.973" fill="#fefffe" d="M 700.5,21.5 C 724.169,21.3334 747.836,21.5 771.5,22C 787.873,23.2719 801.707,29.7719 813,41.5C 819.142,51.657 821.142,62.657 819,74.5C 815.218,87.4913 806.718,95.658 793.5,99C 818.777,106.885 827.444,123.551 819.5,149C 814.719,159.778 806.719,167.112 795.5,171C 784.514,174.942 773.181,176.942 761.5,177C 741.169,177.5 720.836,177.667 700.5,177.5C 700.5,125.5 700.5,73.5 700.5,21.5 Z M 730.5,47.5 C 741.172,47.3335 751.839,47.5002 762.5,48C 771.751,47.8569 779.584,51.0235 786,57.5C 791.857,71.2859 787.357,80.1193 772.5,84C 758.604,86.2304 744.604,87.0637 730.5,86.5C 730.5,73.5 730.5,60.5 730.5,47.5 Z M 730.5,112.5 C 744.874,112.131 759.207,112.631 773.5,114C 788.697,117.247 793.863,126.081 789,140.5C 782.883,146.767 775.383,149.933 766.5,150C 754.505,150.5 742.505,150.667 730.5,150.5C 730.5,137.833 730.5,125.167 730.5,112.5 Z"/></g>
<g><path style="opacity:0.927" fill="#fefffe" d="M 557.5,57.5 C 579.507,70.1669 600.84,83.8336 621.5,98.5C 600.84,113.166 579.507,126.833 557.5,139.5C 557.5,112.167 557.5,84.8333 557.5,57.5 Z"/></g>
<g><path style="opacity:0.959" fill="#fefffe" d="M 366.5,106.5 C 383.503,106.333 400.503,106.5 417.5,107C 436.5,130 455.5,153 474.5,176C 461.833,176.667 449.167,176.667 436.5,176C 421.786,158.074 406.953,140.241 392,122.5C 377.047,140.241 362.214,158.074 347.5,176C 334.833,176.667 322.167,176.667 309.5,176C 328.712,152.96 347.712,129.793 366.5,106.5 Z"/></g>
</svg>
